<?xml version="1.0" encoding="UTF-8"?>
<svg xmlns="http://www.w3.org/2000/svg" xmlns:xlink="http://www.w3.org/1999/xlink" width="1035.1pt" height="469.2pt" viewBox="0 0 1035.1 469.2" version="1.1">
<defs>
<clipPath id="clip1">
  <path d="M 0 1 L 1035.101563 1 L 1035.101563 469.199219 L 0 469.199219 Z M 0 1 "/>
</clipPath>
</defs>
<g id="surface1">
<g clip-path="url(#clip1)" clip-rule="nonzero">
<path style=" stroke:none;fill-rule:evenodd;fill:rgb(10.594177%,9.812927%,9.423828%);fill-opacity:1;" d="M 505.242188 61.667969 C 484.113281 34.453125 470.921875 16.882813 435.175781 6.445313 C 412.785156 -0.09375 388.542969 0.0585938 366.277344 7.054688 L 366.277344 50.574219 C 390.777344 42.015625 404.257813 43.003906 423.136719 48.589844 C 450.207031 56.597656 461.308594 76.851563 477.441406 97.609375 Z M 425.839844 184 L 520.96875 61.710938 C 541.886719 34.761719 555.128906 17.332031 590.667969 6.953125 C 613.058594 0.417969 637.300781 0.566406 659.566406 7.5625 L 659.566406 51.085938 C 635.070313 42.523438 621.589844 43.511719 602.707031 49.097656 C 580.398438 55.699219 569.289063 70.890625 556.5625 87.28125 L 460.976563 210.367188 Z M 609.382813 110.613281 L 514.25 232.902344 C 493.332031 259.851563 480.089844 277.28125 444.550781 287.65625 C 422.160156 294.191406 397.917969 294.042969 375.652344 287.046875 L 375.652344 243.527344 C 400.148438 252.085938 413.628906 251.097656 432.511719 245.511719 C 454.820313 238.910156 465.929688 223.722656 478.65625 207.328125 L 574.242188 84.242188 Z M 529.976563 232.941406 C 551.109375 260.160156 564.296875 277.730469 600.042969 288.164063 C 622.433594 294.703125 646.675781 294.554688 668.941406 287.554688 L 668.941406 244.035156 C 644.441406 252.597656 630.960938 251.609375 612.082031 246.019531 C 585.011719 238.011719 573.910156 217.757813 557.777344 197 Z M 22.136719 449.160156 L 40.183594 449.160156 C 50.625 449.160156 58.203125 446.386719 62.863281 440.839844 C 67.554688 435.292969 69.886719 426.308594 69.886719 413.878906 C 69.886719 401.476563 67.707031 392.386719 63.347656 386.558594 C 58.988281 380.730469 52.195313 377.828125 42.917969 377.828125 L 22.136719 377.828125 Z M 0.0898438 469.1875 L 0.0898438 358.414063 L 42.917969 358.414063 C 59.722656 358.414063 72.242188 363.011719 80.480469 372.179688 C 88.714844 381.34375 92.847656 395.261719 92.847656 413.90625 C 92.847656 424.046875 91.328125 432.957031 88.285156 440.6875 C 85.242188 448.414063 80.808594 454.628906 75.03125 459.328125 C 70.671875 462.847656 65.703125 465.363281 60.152344 466.902344 C 54.628906 468.417969 46.847656 469.1875 36.835938 469.1875 Z M 150.175781 380.601563 L 135.019531 427.746094 L 165.382813 427.746094 Z M 137.097656 358.414063 L 163.074219 358.414063 L 202.511719 469.1875 L 178.890625 469.1875 L 171.464844 446.386719 L 129.089844 446.386719 L 121.890625 469.1875 L 98.195313 469.1875 Z M 213.761719 469.1875 L 213.761719 358.414063 L 237.308594 358.414063 L 281.734375 434.523438 L 281.734375 358.414063 L 303.9375 358.414063 L 303.9375 469.1875 L 280.695313 469.1875 L 235.964844 393.078125 L 235.964844 469.1875 Z M 327.226563 358.414063 L 349.730469 358.414063 L 349.730469 469.1875 L 327.226563 469.1875 Z M 373.175781 469.1875 L 373.175781 358.414063 L 452.601563 358.414063 L 452.601563 377.671875 L 395.375 377.671875 L 395.375 401.246094 L 447.710938 401.246094 L 447.710938 420.195313 L 395.375 420.195313 L 395.375 448.699219 L 455.289063 448.699219 L 455.289063 469.1875 Z M 472.445313 469.1875 L 472.445313 358.414063 L 494.953125 358.414063 L 494.953125 448.699219 L 548.328125 448.699219 L 548.328125 469.1875 Z M 603.855469 469.1875 L 603.855469 358.414063 L 626.359375 358.414063 L 626.359375 403.914063 L 669.0625 358.414063 L 697.222656 358.414063 L 653.554688 403.25 L 701.175781 469.1875 L 673.675781 469.1875 L 638.019531 418.5 L 626.359375 430.234375 L 626.359375 469.1875 Z M 710.78125 469.1875 L 710.78125 358.414063 L 733.285156 358.414063 L 733.285156 448.699219 L 786.660156 448.699219 L 786.660156 469.1875 Z M 798.976563 469.1875 L 798.976563 358.414063 L 878.40625 358.414063 L 878.40625 377.671875 L 821.179688 377.671875 L 821.179688 401.246094 L 873.511719 401.246094 L 873.511719 420.195313 L 821.179688 420.195313 L 821.179688 448.699219 L 881.089844 448.699219 L 881.089844 469.1875 Z M 899.007813 358.414063 L 921.515625 358.414063 L 921.515625 469.1875 L 899.007813 469.1875 Z M 944.960938 469.1875 L 944.960938 358.414063 L 968.511719 358.414063 L 1012.929688 434.523438 L 1012.929688 358.414063 L 1035.128906 358.414063 L 1035.128906 469.1875 L 1011.890625 469.1875 L 967.160156 393.078125 L 967.160156 469.1875 Z M 944.960938 469.1875 "/>
</g>
</g>
</svg>
